<svg id="noun_Category_101469" xmlns="http://www.w3.org/2000/svg" width="92.872" height="90.023" viewBox="0 0 92.872 90.023">
  <g id="Groupe_43" data-name="Groupe 43" transform="translate(0 0)">
    <path id="Tracé_21" data-name="Tracé 21" d="M70.64,18.169a6.3,6.3,0,0,0-4.362,1.753A10234.489,10234.489,0,0,1,66.2,20L54.138,31.725,38.582,46.8,19.857,64.94a5.767,5.767,0,0,0,0,8.292l34.281,33.255a6.278,6.278,0,0,0,8.6,0L81.464,88.347,96.978,73.233l12.1-11.682a.144.144,0,0,1,.083-.04v-.04a5.823,5.823,0,0,0,1.809-4.187V24.07a5.633,5.633,0,0,0-1.769-4.148,6.125,6.125,0,0,0-4.322-1.753Zm0,2.272h34.239a3.9,3.9,0,0,1,2.674,1.037,3.649,3.649,0,0,1,1.07,2.591V57.284a3.459,3.459,0,0,1-1.111,2.592.04.04,0,0,1-.041.04l-.041.04L95.373,71.677l-15.6,15.074L61.051,104.893a3.806,3.806,0,0,1-5.307,0L21.5,71.679a3.531,3.531,0,0,1,0-5.143L40.229,48.393,55.744,33.321,67.843,21.6a.13.13,0,0,1,.083-.04.039.039,0,0,1,.041-.04,3.685,3.685,0,0,1,2.674-1.078Zm25.68,5.464a6.79,6.79,0,0,0-4.693,1.874,6.335,6.335,0,0,0,.041,9.131,6.784,6.784,0,0,0,9.383,0,6.332,6.332,0,0,0,0-9.131c-.041,0-.041-.04-.083-.081a.315.315,0,0,0-.163-.081c-.041-.04-.083-.04-.124-.081a.15.15,0,0,1-.083-.04,6.83,6.83,0,0,0-4.278-1.592Zm0,2.231a4.374,4.374,0,0,1,3.086,1.276,4.051,4.051,0,0,1,0,5.942,4.448,4.448,0,0,1-6.131,0,4.166,4.166,0,0,1,0-5.98,4.3,4.3,0,0,1,3.045-1.237ZM70.846,32.205a1.3,1.3,0,0,0-.7.358l-37.9,36.764A1.131,1.131,0,0,0,32.162,71a1.225,1.225,0,0,0,1.729-.119l37.9-36.724a1.2,1.2,0,0,0-.822-1.953Zm6.873,16.906a1.654,1.654,0,0,0-.7.359L49.694,75.986a1.165,1.165,0,0,0-.083,1.674,1.26,1.26,0,0,0,1.729-.079L78.707,51.065a1.212,1.212,0,0,0-.988-1.954Zm17.448,6.7a1.3,1.3,0,0,0-.7.359l-37.9,36.723a1.1,1.1,0,0,0,0,1.6,1.192,1.192,0,0,0,1.646,0l37.9-36.723a1.192,1.192,0,0,0-.946-1.954Z" transform="translate(-18.099 -18.169)" fill="#fff"/>
  </g>
</svg>
