<svg xmlns="http://www.w3.org/2000/svg" width="20" height="20" viewBox="0 0 23.253 23.202">
  <g id="noun_Category_101469" transform="translate(-18.099 -18.169)">
    <g id="Groupe_43" data-name="Groupe 43" transform="translate(18.099 18.169)">
      <path id="Tracé_21" data-name="Tracé 21" d="M31.254,18.169a1.553,1.553,0,0,0-1.092.452,38.618,38.618,0,0,1-.02.02l-3.019,3.021-3.895,3.885-4.688,4.676a1.517,1.517,0,0,0,0,2.137l8.583,8.571a1.539,1.539,0,0,0,2.154,0l4.688-4.676,3.884-3.9,3.03-3.011a.036.036,0,0,1,.021-.01v-.01a1.522,1.522,0,0,0,.453-1.079V19.69a1.472,1.472,0,0,0-.443-1.069,1.511,1.511,0,0,0-1.082-.452Zm0,.586h8.573a.914.914,0,0,1,.937.935V28.25a.9.9,0,0,1-.278.668.01.01,0,0,1-.01.01l-.01.01L37.447,31.96l-3.9,3.885L28.853,40.52a.934.934,0,0,1-1.329,0l-8.573-8.56a.928.928,0,0,1,0-1.326l4.688-4.676,3.885-3.884,3.029-3.021a.032.032,0,0,1,.021-.01.01.01,0,0,1,.01-.01.909.909,0,0,1,.669-.278Zm6.43,1.408a1.66,1.66,0,1,0,1.184.483c-.01,0-.01-.01-.021-.021a.078.078,0,0,0-.041-.021c-.01-.01-.021-.01-.031-.021a.037.037,0,0,1-.021-.01,1.682,1.682,0,0,0-1.071-.41Zm0,.575a1.079,1.079,0,0,1,.773.329,1.065,1.065,0,0,1,0,1.531,1.088,1.088,0,0,1-1.535-1.541,1.06,1.06,0,0,1,.762-.319Zm-6.378,1.049a.321.321,0,0,0-.175.092l-9.49,9.475a.3.3,0,0,0-.021.432.3.3,0,0,0,.433-.031l9.49-9.465a.312.312,0,0,0-.206-.5Zm1.721,4.357a.41.41,0,0,0-.175.093L26.01,33.07a.292.292,0,1,0,.412.411l6.852-6.834a.313.313,0,0,0-.247-.5ZM37.4,27.87a.322.322,0,0,0-.175.093l-9.49,9.465a.291.291,0,0,0,.412.411l9.49-9.465a.308.308,0,0,0-.237-.5Z" transform="translate(-18.099 -18.169)" fill="#fff"/>
    </g>
  </g>
</svg>
