<svg xmlns="http://www.w3.org/2000/svg" width="34.07" height="45.174" viewBox="0 0 34.07 45.174">
  <g id="noun_Location_1631769" transform="translate(-4 -2)">
    <g id="Groupe_44" data-name="Groupe 44" transform="translate(4 2)">
      <path id="Tracé_22" data-name="Tracé 22" d="M21.035,4.151A15,15,0,0,1,35.94,19.209c0,11.213-11.063,21.825-14.907,25.174-3.846-3.343-14.9-13.936-14.9-25.174A15,15,0,0,1,21.035,4.151m0-2.151A17.123,17.123,0,0,0,4,19.209C4,33.96,21.035,47.174,21.035,47.174S38.07,33.96,38.07,19.209A17.123,17.123,0,0,0,21.035,2Zm0,10.756a6.454,6.454,0,1,1-6.388,6.453,6.428,6.428,0,0,1,6.388-6.453m0-2.151a8.605,8.605,0,1,0,8.517,8.6,8.561,8.561,0,0,0-8.517-8.6Z" transform="translate(-4 -2)"/>
    </g>
  </g>
</svg>
