<svg xmlns="http://www.w3.org/2000/svg" width="33.953" height="32.05" viewBox="0 0 33.953 32.05">
  <g id="noun_Category_101469" transform="translate(-18.099 -18.169)">
    <g id="Groupe_43" data-name="Groupe 43" transform="translate(18.099 18.169)">
      <path id="Tracé_21" data-name="Tracé 21" d="M37.307,18.169a2.335,2.335,0,0,0-1.595.624c0,.014-.015.014-.015.014s-.015.014-.015.014L31.274,23l-5.687,5.366-6.846,6.459a2.016,2.016,0,0,0,0,2.952l12.533,11.84a2.34,2.34,0,0,0,3.144,0l6.846-6.459,5.672-5.381,4.424-4.159a.053.053,0,0,1,.03-.014v-.014a2.048,2.048,0,0,0,.661-1.491V20.27a1.981,1.981,0,0,0-.647-1.477,2.271,2.271,0,0,0-1.58-.624Zm0,.809H49.824a1.447,1.447,0,0,1,.978.369,1.282,1.282,0,0,1,.391.922V32.095a1.217,1.217,0,0,1-.406.923c0,.014-.015.014-.015.014l-.015.014-4.408,4.173-5.7,5.367L33.8,49.044a1.418,1.418,0,0,1-1.94,0L19.344,37.219a1.235,1.235,0,0,1,0-1.831l6.846-6.459,5.672-5.366,4.423-4.174a.048.048,0,0,1,.03-.014.014.014,0,0,1,.015-.014,1.366,1.366,0,0,1,.978-.384ZM46.7,20.923a2.519,2.519,0,0,0-1.716.667,2.215,2.215,0,0,0,.015,3.251,2.529,2.529,0,0,0,3.43,0,2.214,2.214,0,0,0,0-3.251c-.015,0-.015-.014-.03-.029a.117.117,0,0,0-.06-.029c-.015-.014-.03-.014-.045-.029a.055.055,0,0,1-.03-.014,2.537,2.537,0,0,0-1.564-.567Zm0,.794a1.621,1.621,0,0,1,1.128.454,1.417,1.417,0,0,1,0,2.115,1.658,1.658,0,0,1-2.241,0,1.456,1.456,0,0,1,0-2.129,1.594,1.594,0,0,1,1.113-.441Zm-9.313,1.448a.479.479,0,0,0-.255.127L23.27,36.382a.4.4,0,0,0-.03.6.456.456,0,0,0,.632-.042L37.728,23.861a.426.426,0,0,0-.3-.7Zm2.513,6.019a.61.61,0,0,0-.255.128l-9.99,9.44a.407.407,0,0,0-.03.6.469.469,0,0,0,.632-.028l10-9.44c.255-.228,0-.739-.361-.7Zm6.379,2.385a.479.479,0,0,0-.255.128L32.162,44.772a.386.386,0,0,0,0,.568.444.444,0,0,0,.6,0L46.62,32.266a.424.424,0,0,0-.346-.7Z" transform="translate(-18.099 -18.169)"/>
    </g>
  </g>
</svg>
