<svg xmlns="http://www.w3.org/2000/svg" xmlns:xlink="http://www.w3.org/1999/xlink" width="23" height="23" viewBox="0 0 23 23">
  <defs>
    <clipPath id="clip-path">
      <rect id="Rectangle_2" data-name="Rectangle 2" width="23" height="23" transform="translate(1563 100)" fill="#fff"/>
    </clipPath>
  </defs>
  <g id="Groupe_de_masques_1" data-name="Groupe de masques 1" transform="translate(-1563 -100)" clip-path="url(#clip-path)">
    <g id="linkedin" transform="translate(1563 100)">
      <g id="Groupe_2" data-name="Groupe 2">
        <g id="Groupe_1" data-name="Groupe 1">
          <rect id="Rectangle_1" data-name="Rectangle 1" width="5.143" height="15.813" transform="translate(0 7.188)" fill="#fff"/>
        </g>
      </g>
      <g id="Groupe_4" data-name="Groupe 4">
        <g id="Groupe_3" data-name="Groupe 3">
          <path id="Tracé_1" data-name="Tracé 1" d="M19.153,7.373c-.055-.017-.106-.036-.164-.052s-.138-.029-.208-.04a4.61,4.61,0,0,0-.923-.093,7.146,7.146,0,0,0-5.527,3.023V7.188H7.188V23h5.143V14.375s3.887-5.414,5.527-1.437V23H23V12.329A5.128,5.128,0,0,0,19.153,7.373Z" fill="#fff"/>
        </g>
      </g>
      <g id="Groupe_6" data-name="Groupe 6">
        <g id="Groupe_5" data-name="Groupe 5">
          <circle id="Ellipse_1" data-name="Ellipse 1" cx="2.516" cy="2.516" r="2.516" fill="#fff"/>
        </g>
      </g>
    </g>
  </g>
</svg>
