<svg xmlns="http://www.w3.org/2000/svg" width="16" height="18" viewBox="0 0 18.142 23.811">
  <g id="noun_Location_1631769" transform="translate(-4 -2)">
    <g id="Groupe_44" data-name="Groupe 44" transform="translate(4 2)">
      <path id="Tracé_22" data-name="Tracé 22" d="M13.071,3.134a7.946,7.946,0,0,1,7.937,7.937c0,5.91-5.891,11.5-7.938,13.269-2.048-1.762-7.936-7.346-7.936-13.269a7.946,7.946,0,0,1,7.937-7.937m0-1.134A9.071,9.071,0,0,0,4,11.071c0,7.775,9.071,14.74,9.071,14.74s9.071-6.965,9.071-14.74A9.071,9.071,0,0,0,13.071,2Zm0,5.669a3.4,3.4,0,1,1-3.4,3.4,3.405,3.405,0,0,1,3.4-3.4m0-1.134a4.535,4.535,0,1,0,4.535,4.535,4.535,4.535,0,0,0-4.535-4.535Z" transform="translate(-4 -2)" fill="#fff"/>
    </g>
  </g>
</svg>
